<svg xmlns="http://www.w3.org/2000/svg" viewBox="0 0 24 24" fill="#76b900"><path d="M8.948 8.798v-1.43a6.7 6.7 0 0 1 .424-.018c3.922-.124 6.417 3.396 6.417 3.396s-2.72 3.793-5.632 3.793a4.2 4.2 0 0 1-1.21-.18v-4.5l-.001-.002v-.005c1.705-.205 2.05.784 3.058 2.548l2.273-1.89s-1.612-2.318-4.091-2.318c-.437 0-.835.049-1.238.106zm0-4.985v2.02l.424-.028c5.594-.182 9.19 4.827 9.19 4.827s-4.08 5.353-8.218 5.353a5.6 5.6 0 0 1-1.396-.18v1.456a7 7 0 0 0 1.152.1c3.772 0 6.49-1.924 9.135-4.222.44.352 2.243 1.21 2.613 1.588C18.918 17.18 15.333 19 11.46 19c-1.024 0-1.793-.105-2.512-.273v1.857H23V3.813zM8.948 3.993v-.004H1v16.585h1.996V8.078S5.147 3.993 8.948 3.993z"/></svg>
