<svg xmlns="http://www.w3.org/2000/svg" viewBox="0 0 48 48"><path d="M13.1 27.6c0 1.8-1.5 3.3-3.3 3.3S6.5 29.4 6.5 27.6s1.5-3.3 3.3-3.3h3.3v3.3zm1.7 0c0-1.8 1.5-3.3 3.3-3.3s3.3 1.5 3.3 3.3v8.2c0 1.8-1.5 3.3-3.3 3.3s-3.3-1.5-3.3-3.3v-8.2z" fill="#e01e5a"/><path d="M18.1 13.1c-1.8 0-3.3-1.5-3.3-3.3S16.3 6.5 18.1 6.5s3.3 1.5 3.3 3.3v3.3h-3.3zm0 1.7c1.8 0 3.3 1.5 3.3 3.3s-1.5 3.3-3.3 3.3H9.8c-1.8 0-3.3-1.5-3.3-3.3s1.5-3.3 3.3-3.3h8.3z" fill="#36c5f0"/><path d="M32.6 18.1c0-1.8 1.5-3.3 3.3-3.3s3.3 1.5 3.3 3.3-1.5 3.3-3.3 3.3h-3.3v-3.3zm-1.7 0c0 1.8-1.5 3.3-3.3 3.3s-3.3-1.5-3.3-3.3V9.8c0-1.8 1.5-3.3 3.3-3.3s3.3 1.5 3.3 3.3v8.3z" fill="#2eb67d"/><path d="M27.6 32.6c1.8 0 3.3 1.5 3.3 3.3s-1.5 3.3-3.3 3.3-3.3-1.5-3.3-3.3v-3.3h3.3zm0-1.7c-1.8 0-3.3-1.5-3.3-3.3s1.5-3.3 3.3-3.3h8.2c1.8 0 3.3 1.5 3.3 3.3s-1.5 3.3-3.3 3.3h-8.2z" fill="#ecb22e"/></svg>
