<svg xmlns="http://www.w3.org/2000/svg" viewBox="0 0 48 48"><circle cx="24" cy="24" r="22" fill="#25d366"/><path d="M15.2 33.6l1.2-4.3c-1.2-2-1.9-4.3-1.9-6.7C14.5 16.3 19.8 11 26 11c3 0 5.8 1.2 7.9 3.3s3.3 4.9 3.3 7.9c0 6.2-5.3 11.3-11.5 11.3-2.2 0-4.3-.6-6.1-1.6l-4.4 1.1zm4.7-2.7l.4.2c1.6 1 3.5 1.5 5.4 1.5 5.2 0 9.4-4.2 9.4-9.4 0-2.5-1-4.9-2.7-6.6-1.8-1.8-4.1-2.7-6.6-2.7-5.2 0-9.4 4.2-9.4 9.4 0 2 .6 4 1.7 5.6l.3.4-1.1 3.9 3.6-1.3z" fill="#fff"/><path d="M20.8 17.7c-.3-.6-.5-.6-.8-.6h-.7c-.2 0-.6.1-.9.4s-1.2 1.2-1.2 2.9 1.2 3.4 1.4 3.6c.2.2 2.4 3.8 5.9 5.2.8.4 1.5.6 2 .7.8.3 1.6.2 2.2.1.7-.1 2.1-.9 2.4-1.7.3-.8.3-1.5.2-1.7-.1-.2-.4-.3-.8-.5s-2.4-1.2-2.8-1.3c-.4-.2-.7-.2-.9.2-.3.4-1 1.3-1.2 1.6-.2.2-.5.3-.8.1-.4-.2-1.6-.6-3-1.9-1.1-1-1.8-2.2-2-2.6-.2-.4 0-.6.2-.8.2-.2.4-.4.5-.7.2-.2.2-.4.4-.7.1-.2 0-.5-.1-.7-.1-.1-.9-2.2-1.3-3z" fill="#fff"/></svg>
